# xmcd
#
# Track frame offsets: 
#        150
#        14520
#        25715
#        37487
#        51680
#        69267
#        82527
#        104715
#        119172
#        128625
#        144247
#        158940
#        181412
#        196127
#        209950
#        222502
#        233400
#        244142
#        254942
#        265945
#        281970
#        296132
#        306510
#        321225
#        333982
#        343225
#
# Disc length: 4766 seconds
#
# Revision: 0
# Processed by: cddbd v1.5.2PL0 Copyright (c) Steve Scherf et al.
# Submitted via: ExactAudioCopy v0.95b4
#
DISCID=b0129c1a
DTITLE=John Stewart - John Stewart
DYEAR=2006
DGENRE=Country
TTITLE0=California Bloodlines
TTITLE1=Razor-Back Woman
TTITLE2=She Believes in Me
TTITLE3=Omaha Rainbow
TTITLE4=The Pirates of Stone Country Road
TTITLE5=Shackles and Chains
TTITLE6=Mother Country
TTITLE7=Some Lonesome Picker
TTITLE8=You Can't Look Back
TTITLE9=Missouri Birds
TTITLE10=July, You're a Woman
TTITLE11=Never Goin' Back
TTITLE12=Big Joe
TTITLE13=Julie, Judy, Angel Rain
TTITLE14=Belly Full of Tennessee
TTITLE15=Friends of Jesus
TTITLE16=Clack Clack
TTITLE17=Hero from the War
TTITLE18=Back in Pomona
TTITLE19=Willard
TTITLE20=Golden Rollin' Belly
TTITLE21=All American Girl
TTITLE22=Oldest Living Son
TTITLE23=Earth Rider
TTITLE24=Great White Cathedrals
TTITLE25=Marshall Wind
EXTD=
EXTT0=
EXTT1=
EXTT2=
EXTT3=
EXTT4=
EXTT5=
EXTT6=
EXTT7=
EXTT8=
EXTT9=
EXTT10=
EXTT11=
EXTT12=
EXTT13=
EXTT14=
EXTT15=
EXTT16=
EXTT17=
EXTT18=
EXTT19=
EXTT20=
EXTT21=
EXTT22=
EXTT23=
EXTT24=
EXTT25=
PLAYORDER=
